<?xml version="1.0" standalone="no"?><!DOCTYPE svg PUBLIC "-//W3C//DTD SVG 1.1//EN" "http://www.w3.org/Graphics/SVG/1.1/DTD/svg11.dtd"><svg t="1716470959729" class="icon" viewBox="0 0 1024 1024" version="1.1" xmlns="http://www.w3.org/2000/svg" p-id="1332" xmlns:xlink="http://www.w3.org/1999/xlink" width="200" height="200"><path d="M108.16 132.864c-30.378667-30.378667-30.378667-79.658667 0-110.058667 30.378667-30.4 79.658667-30.4 110.037333 0C240.042667 44.650667 245.930667 76.181333 236.394667 103.509333l241.130667 180.010667-109.781333 109.781333L188.864 151.04C161.536 160.576 130.005333 154.688 108.16 132.864z" fill="#4081d8" p-id="1333"></path><path d="M451.050667 758.869333c-109.845333 0-213.354667-42.645333-291.498667-120.064l-36.992-36.650667L708.053333 15.829333l36.714667 36.906667c77.717333 78.165333 120.490667 181.824 120.490667 291.946667C865.258667 573.056 679.445333 758.869333 451.050667 758.869333zM272.64 598.698667c51.904 36.650667 113.706667 56.405333 178.410667 56.405333 171.178667 0 310.421333-139.242667 310.421333-310.421333 0-64.896-19.84-126.826667-56.64-178.794667L272.64 598.698667z" fill="#4081d8" p-id="1334"></path><path d="M938.624 1024l-636.373333 0 33.6-73.472c0.234667-0.448 22.016-48.192 59.370667-136.277333l14.378667-33.898667 36.757333 2.368c170.410667 11.114667 289.024-97.152 290.154667-98.197333l57.002667-52.928L938.624 1024zM462.677333 920.234667l327.04 0-42.474667-115.029333c-57.002667 36.032-151.36 80.661333-270.336 82.069333C471.744 899.242667 467.029333 910.229333 462.677333 920.234667z" fill="#4081d8" p-id="1335"></path></svg>