<?xml version="1.0" standalone="no"?><!DOCTYPE svg PUBLIC "-//W3C//DTD SVG 1.1//EN" "http://www.w3.org/Graphics/SVG/1.1/DTD/svg11.dtd"><svg t="1716471163170" class="icon" viewBox="0 0 1024 1024" version="1.1" xmlns="http://www.w3.org/2000/svg" p-id="2704" xmlns:xlink="http://www.w3.org/1999/xlink" width="200" height="200"><path d="M984.577643 669.51877c21.759093 0 39.379693 17.599267 39.379692 39.379693v196.898462A118.288405 118.288405 0 0 1 905.796925 1023.957335H669.51877a39.337028 39.337028 0 0 1-39.379692-39.379692c0-21.780426 17.599267-39.379693 39.379692-39.379693H905.775593c21.759093 0 39.401025-17.641932 39.401025-39.379692V708.87713c0-21.780426 17.599267-39.379693 39.379692-39.379692z m-945.19795 0c21.759093 0 39.379693 17.599267 39.379692 39.379693v196.898462c0 21.759093 17.705929 39.401025 39.401025 39.401025h196.898463a39.379693 39.379693 0 1 1 0 78.759385H118.181742A118.288405 118.288405 0 0 1 0 905.818258V708.87713c0-21.780426 17.641932-39.379693 39.379693-39.379692z m348.998791-449.005291a29.481438 29.481438 0 0 1 23.956335-6.143744c14.143411 2.559893 23.721678 15.786009 23.721679 29.972084V476.353485c0 10.55956 8.682305 19.135203 19.412524 19.135203 10.73022 0 19.412524-8.575643 19.412525-19.135203v-166.755718c0.021332-8.532978 3.882505-16.639307 10.55956-22.07908a29.481438 29.481438 0 0 1 23.956335-6.143744c14.143411 2.559893 23.721678 15.786009 23.721678 29.972084v155.428191c0 10.580892 8.682305 19.156535 19.412525 19.156535 10.73022 0 19.412524-8.575643 19.412524-19.156535v-109.328778c0.021332-8.532978 3.882505-16.617974 10.55956-22.07908a29.481438 29.481438 0 0 1 23.956335-6.122412c14.143411 2.538561 23.721678 15.786009 23.721678 29.950752v126.71472c0 10.580892 8.682305 19.156535 19.412525 19.156536 10.73022 0 19.412524-8.575643 19.412524-19.135203v-88.444315c0-14.186076 9.5996-27.412191 23.721679-29.972084 8.511645-1.557268 17.27928 0.682638 23.956335 6.143744 6.655723 5.439773 10.538228 13.546102 10.55956 22.07908v276.041831c0 66.066581-54.333736 119.632349-121.317612 119.632349h-53.395108a175.310029 175.310029 0 0 1-119.355027-46.696721c-0.447981-0.426649-0.981292-0.725303-1.429274-1.173285l-1.493271-1.450606a185.378943 185.378943 0 0 1-2.410566-2.389234l-181.240449-178.701887a38.078413 38.078413 0 0 1 5.546436-58.706887c15.786009-10.751552 37.481105-7.167701 51.027207 6.186409l74.663556 73.618266V242.592559c0-8.532978 3.882505-16.639307 10.538227-22.07908zM315.080205 0a39.401025 39.401025 0 0 1 0 78.759385H118.181742A39.465022 39.465022 0 0 0 78.759385 118.181742v196.898463a39.401025 39.401025 0 0 1-78.759385 0V118.181742A118.288405 118.288405 0 0 1 118.139078 0h196.919795z m590.738053 0A118.288405 118.288405 0 0 1 1023.957335 118.139078v196.919795a39.379693 39.379693 0 1 1-78.759385 0V118.181742a39.422357 39.422357 0 0 0-39.379692-39.401025H669.51877a39.379693 39.379693 0 1 1 0-78.759385H905.775593z" fill="#4081d8" p-id="2705"></path></svg>