<svg t="1716436145625" class="icon" viewBox="0 0 1024 1024" version="1.1" xmlns="http://www.w3.org/2000/svg" p-id="1667" width="200" height="200"><path d="M756.906667 940.942222a61.610667 61.610667 0 0 1-59.448889-42.481778H340.750222a61.639111 61.639111 0 0 1-59.448889 42.467556h-146.488889A61.582222 61.582222 0 0 1 91.022222 922.609778 69.688889 69.688889 0 0 1 71.111111 877.212444V552.405333a63.786667 63.786667 0 0 1 63.715556-63.701333h146.488889a61.582222 61.582222 0 0 1 59.448888 42.481778h139.278223v-80.682667H311.025778a178.517333 178.517333 0 0 1-70.599111-14.492444 184.163556 184.163556 0 0 1-58.069334-39.381334 184.334222 184.334222 0 0 1-39.381333-58.083555 178.389333 178.389333 0 0 1-14.492444-70.613334 178.417778 178.417778 0 0 1 14.492444-70.641777 184.348444 184.348444 0 0 1 39.381333-58.069334 183.694222 183.694222 0 0 1 58.069334-39.381333A178.289778 178.289778 0 0 1 311.025778 85.333333H727.182222a178.346667 178.346667 0 0 1 70.613334 14.506667 184.120889 184.120889 0 0 1 58.069333 39.381333 183.936 183.936 0 0 1 39.367111 58.069334c9.585778 22.328889 14.506667 46.364444 14.492444 70.641777a178.503111 178.503111 0 0 1-14.492444 70.613334 183.992889 183.992889 0 0 1-39.367111 58.083555 184.576 184.576 0 0 1-58.069333 39.381334 178.574222 178.574222 0 0 1-70.613334 14.492444H558.179556v80.682667h139.278222a61.553778 61.553778 0 0 1 59.448889-42.481778h146.488889a63.758222 63.758222 0 0 1 63.701333 63.701333v324.807111a63.786667 63.786667 0 0 1-63.701333 63.715556h-146.488889zM739.598222 860.444444a21.333333 21.333333 0 0 0 21.333334 21.333334h142.222222a21.333333 21.333333 0 1 0 0-42.666667h-142.222222a21.333333 21.333333 0 0 0-21.361778 21.319111l0.028444 0.014222z m-625.777778 0a21.333333 21.333333 0 0 0 21.333334 21.333334h142.222222a21.333333 21.333333 0 1 0 0-42.666667h-142.222222A21.333333 21.333333 0 0 0 113.792 860.444444l0.028444 0.014223z m625.777778-99.555555a21.333333 21.333333 0 0 0 21.333334 21.333333h142.222222a21.333333 21.333333 0 1 0 0-42.666666h-142.222222a21.333333 21.333333 0 0 0-21.361778 21.319111l0.028444 0.014222z m-625.777778 0a21.333333 21.333333 0 0 0 21.333334 21.333333h142.222222a21.333333 21.333333 0 1 0 0-42.666666h-142.222222A21.333333 21.333333 0 0 0 113.792 760.888889l0.028444 0.014222z m625.777778-99.555556a21.333333 21.333333 0 0 0 21.333334 21.333334h142.222222a21.333333 21.333333 0 1 0 0-42.666667h-142.222222a21.333333 21.333333 0 0 0-21.361778 21.319111l0.028444 0.014222z m-625.777778 0a21.333333 21.333333 0 0 0 21.333334 21.333334h142.222222a21.333333 21.333333 0 1 0 0-42.666667h-142.222222A21.333333 21.333333 0 0 0 113.792 661.333333l0.028444 0.014223z m625.777778-99.555555a21.333333 21.333333 0 0 0 21.333334 21.333333h142.222222a21.333333 21.333333 0 1 0 0-42.666667h-142.222222a21.333333 21.333333 0 0 0-21.361778 21.319112l0.028444 0.014222z m-625.777778 0a21.333333 21.333333 0 0 0 21.333334 21.333333h142.222222a21.333333 21.333333 0 1 0 0-42.666667h-142.222222A21.333333 21.333333 0 0 0 113.792 561.777778l0.028444 0.014222z m519.111112-298.666667a85.418667 85.418667 0 0 0 85.333333 85.333333 85.432889 85.432889 0 0 0 85.333333-85.333333 85.432889 85.432889 0 0 0-85.333333-85.333333 85.418667 85.418667 0 0 0-85.361778 85.319111l0.028445 0.014222z m-384 0a85.432889 85.432889 0 0 0 85.333333 85.333333 85.447111 85.447111 0 0 0 85.333333-85.333333 85.447111 85.447111 0 0 0-85.333333-85.333333 85.432889 85.432889 0 0 0-85.361778 85.319111l0.028445 0.014222z m419.555555 0a49.777778 49.777778 0 1 1 99.612445 0.028445 49.777778 49.777778 0 0 1-99.640889-0.042667l0.028444 0.014222z m-384 0a49.777778 49.777778 0 1 1 99.612445 0.028445 49.777778 49.777778 0 0 1-99.640889-0.042667l0.028444 0.014222z" fill="#ffffff" p-id="1668"></path></svg>