<?xml version="1.0" standalone="no"?><!DOCTYPE svg PUBLIC "-//W3C//DTD SVG 1.1//EN" "http://www.w3.org/Graphics/SVG/1.1/DTD/svg11.dtd"><svg t="1716471156907" class="icon" viewBox="0 0 1037 1024" version="1.1" xmlns="http://www.w3.org/2000/svg" p-id="2450" xmlns:xlink="http://www.w3.org/1999/xlink" width="202.5390625" height="200"><path d="M268.780203 512.006305A243.638379 243.638379 0 1 0 512.418581 268.367927 244.142806 244.142806 0 0 0 268.780203 512.006305z m412.117092 0A167.974286 167.974286 0 1 1 512.418581 344.032019 168.478713 168.478713 0 0 1 680.392867 512.006305z" fill="#4081d8" p-id="2451"></path><path d="M947.739329 476.696395v7.061982a34.301055 34.301055 0 0 0 40.354182 30.770065 40.85861 40.85861 0 0 0 34.301056-44.389601A511.993695 511.993695 0 1 0 512.418581 1024a514.515831 514.515831 0 0 0 478.197067-329.391017 37.832046 37.832046 0 0 0-70.61982-27.239074 436.329602 436.329602 0 1 1 27.239073-190.673514z" fill="#4081d8" p-id="2452"></path></svg>